<!DOCTYPE svg PUBLIC "-//W3C//DTD SVG 1.1//EN" "http://www.w3.org/Graphics/SVG/1.1/DTD/svg11.dtd">

<!-- Uploaded to: SVG Repo, www.svgrepo.com, Transformed by: SVG Repo Mixer Tools -->
<svg width="800px" height="800px" viewBox="-6.4 -6.4 76.80 76.80" xmlns="http://www.w3.org/2000/svg" xmlns:xlink="http://www.w3.org/1999/xlink" aria-hidden="true" role="img" class="iconify iconify--emojione" preserveAspectRatio="xMidYMid meet" fill="#000000" stroke="#000000" stroke-width="0.00064">

<g id="SVGRepo_bgCarrier" stroke-width="0">

<rect x="-6.4" y="-6.4" width="76.80" height="76.80" rx="0" fill="#7ed0ec" strokewidth="0"/>

</g>

<g id="SVGRepo_tracerCarrier" stroke-linecap="round" stroke-linejoin="round"/>

<g id="SVGRepo_iconCarrier">

<path d="M62 32S51.9 52 32 52S2 32 2 32s10.1-20 30-20s30 20 30 20" fill="#ffffff"/>

<path d="M57 32s-8.4 16.7-25 16.7S7 32 7 32s8.4-16.7 25-16.7S57 32 57 32z" fill="#ffffff"/>

<path d="M45.4 32c0 7.5-6 13.5-13.5 13.5s-13.5-6-13.5-13.5s6-13.5 13.5-13.5s13.5 6 13.5 13.5" fill="#42ade2"/>

<path d="M39.4 32c0 4.1-3.4 7.5-7.5 7.5s-7.5-3.4-7.5-7.5s3.4-7.5 7.5-7.5s7.5 3.4 7.5 7.5" fill="#231f20"/>

</g>

</svg>