<?xml version="1.0" encoding="utf-8"?>
<!-- Generator: Adobe Illustrator 27.5.0, SVG Export Plug-In . SVG Version: 6.00 Build 0)  -->
<svg version="1.1" xmlns="http://www.w3.org/2000/svg" xmlns:xlink="http://www.w3.org/1999/xlink" x="0px" y="0px"
	 viewBox="0 0 750 500" style="enable-background:new 0 0 750 500;" xml:space="preserve">
<g id="BACKGROUND">
	<rect style="fill:#FEECE8;" width="750" height="500"/>
	<rect y="383.761" style="fill:#F4D4D0;" width="750" height="116.239"/>
</g>
<g id="OBJECTS">
	<g>
		<g>
			<path style="fill:#FFFFFF;" d="M292.254,92.393c-1.802-2.723-4.889-4.521-8.398-4.521c-1.32,0-2.576,0.261-3.731,0.723
				c-0.96-8.749-8.369-15.558-17.374-15.558c-5.942,0-11.183,2.97-14.342,7.499c-2.165-1.251-4.67-1.979-7.35-1.979
				c-1.834,0-3.583,0.351-5.202,0.964c-2.492-9.953-11.493-17.326-22.218-17.326c-3.905,0-7.579,0.979-10.797,2.702
				c-4.55-12.029-16.169-20.585-29.792-20.585c-17.563,0-31.803,14.217-31.845,31.77c-2.807-1.919-6.199-3.045-9.855-3.045
				c-3.717,0-7.157,1.169-9.99,3.146c-3.627-7.023-10.95-11.828-19.399-11.828c-10.664,0-19.535,7.649-21.442,17.759
				c-1.76-0.832-3.72-1.31-5.796-1.31c-6.826,0-12.462,5.034-13.436,11.589H292.254z"/>
			<path style="fill:#FFFFFF;" d="M698.573,114.177c-0.24-4.604-4.037-8.265-8.701-8.265c-1.599,0-3.092,0.437-4.38,1.188
				c-1.442-5.622-6.528-9.783-12.599-9.783c-3.224,0-6.169,1.178-8.443,3.119c-0.95-10.745-9.962-19.174-20.954-19.174
				c-6.919,0-13.039,3.353-16.875,8.507c-3.837-5.153-9.957-8.507-16.875-8.507c-5.163,0-9.886,1.866-13.548,4.951
				c-4.168-8.828-13.148-14.939-23.559-14.939c-14.068,0-25.523,11.156-26.019,25.102c-1.783-0.812-3.757-1.276-5.843-1.276
				c-7.206,0-13.141,5.399-14.008,12.37c-1.411-0.98-3.122-1.559-4.97-1.559c-4.663,0-8.461,3.662-8.701,8.265H698.573z"/>
			<path style="fill:#FFFFFF;" d="M458.925,136.987c-0.363-3.347-3.197-5.954-6.641-5.954c-0.685,0-1.346,0.104-1.969,0.296
				c-0.433-6.36-5.716-11.389-12.186-11.389c-2.66,0-5.115,0.859-7.122,2.301c-2.56-4.049-7.065-6.746-12.211-6.746
				c-6.423,0-11.86,4.194-13.741,9.99c-1.712-1.229-3.804-1.96-6.072-1.96c-5.089,0-9.322,3.645-10.244,8.465
				c-1.004-0.603-2.176-0.957-3.432-0.957c-3.444,0-6.277,2.606-6.64,5.954H458.925z"/>
		</g>
		<polygon style="fill:#F9DFDB;" points="738.099,287.842 738.099,280.806 712.519,280.806 712.519,231.857 706.802,231.857 
			706.802,204.337 698.651,204.337 698.651,196.495 669.585,196.495 640.519,196.495 640.519,204.337 635.397,204.337 
			635.397,231.857 629.679,231.857 629.679,260.906 612.578,260.906 612.578,162.462 540.449,128.83 540.449,260.906 
			499.909,260.906 499.909,178.508 487.772,178.508 487.772,162.169 476.788,162.169 476.788,105.419 431.25,105.419 
			431.25,162.169 419.554,162.169 419.554,178.508 411.317,178.508 411.317,260.906 380.918,260.906 380.918,272.73 378.549,272.73 
			378.549,183.949 366.411,183.949 366.411,167.609 340.977,167.609 340.925,167.609 298.194,167.609 298.194,183.949 
			289.957,183.949 289.957,272.73 285.302,272.73 285.302,285.307 245.374,285.307 245.374,288.743 218.313,288.743 
			218.313,208.037 212.595,208.037 212.595,180.517 204.445,180.517 204.445,146.195 146.313,146.195 146.313,180.517 
			141.19,180.517 141.19,208.037 135.473,208.037 135.473,255.432 117.797,255.432 117.745,255.432 100.243,255.432 
			100.243,216.127 47.327,191.454 47.327,266.474 10.717,266.474 10.717,274.49 0,274.49 0,383.761 47.327,383.761 68.394,383.761 
			681.606,383.761 712.519,383.761 750,383.761 750,287.842 		"/>
		<g>
			<g>
				<rect x="83.01" y="177.905" style="fill:#070908;" width="5.703" height="13.015"/>
				<rect x="137.113" y="177.905" style="fill:#070908;" width="5.703" height="13.015"/>
			</g>
			<g>
				<rect x="156.384" y="177.905" style="fill:#070908;" width="5.703" height="13.015"/>
				<rect x="246.331" y="177.905" style="fill:#070908;" width="5.703" height="13.015"/>
				<rect x="336.278" y="177.905" style="fill:#070908;" width="5.703" height="13.015"/>
			</g>
			<path style="fill:#070908;" d="M210.632,92.726l0,5.924c-0.614,1.751-2.068,3.27-4.073,4.636
				c-15.191,9.712-11.379,30.522,5.948,30.522c10.991,0,17.456-6.568,16.68-19.833c1.584-1.417,0.582-5.892-2.845-4.186
				c-3.556,1.803-3.491,13.072-11.831,13.201c-6.417,0.129-7.823-6.681-5.35-10.496c2.214-3.606,8.841-5.763,9.358-13.845v-5.924
				H210.632z"/>
			<path style="fill:#6C78B9;" d="M218.17,94.625h-7.659c-1.383,0-2.504-1.121-2.504-2.504V82.22c0-1.383,1.121-2.504,2.504-2.504
				h7.659c1.383,0,2.504,1.121,2.504,2.504v9.901C220.674,93.504,219.553,94.625,218.17,94.625z"/>
			<path style="fill:#070908;" d="M183.829,0v2.506c0,3.66,2.744,6.628,6.128,6.628h48.357c3.385,0,6.128-2.967,6.128-6.628V0
				H183.829z"/>
			<g>
				<rect x="198.868" y="4.088" style="fill:#070908;" width="0.75" height="56.358"/>
				<rect x="228.652" y="4.088" style="fill:#070908;" width="0.75" height="56.358"/>
			</g>
			<path style="fill:#070908;" d="M234.958,50.319c0-11.341-9.231-20.535-20.618-20.535c-11.387,0-20.617,9.194-20.617,20.535
				c0,2.209,0.359,4.332,1.007,6.325h-0.007l8.264,23.007c0.994,2.766,3.625,4.612,6.574,4.612h9.761
				c2.829,0,5.355-1.766,6.315-4.417l8.441-23.302l-0.091,0C234.615,54.58,234.958,52.49,234.958,50.319z"/>
			<rect x="76.579" y="160.831" style="fill:#BC3939;" width="72.669" height="20.651"/>
			<rect x="149.248" y="160.831" style="fill:#D25754;" width="199.412" height="20.651"/>
			<path style="fill:#070908;" d="M343.539,161.19l-129.982-38.322L84.732,161.19l-0.214-0.719l128.933-38.353
				c0.068-0.021,0.143-0.021,0.213-0.001l130.088,38.353L343.539,161.19z"/>
			<rect x="76.579" y="160.456" style="fill:#070908;" width="272.081" height="0.75"/>
			<g>
				<path style="fill:#F2AD33;" d="M234.958,50.319c0-1.797-0.233-3.54-0.669-5.201l-29.805-12.839
					c-2.531,1.375-4.738,3.265-6.485,5.526l36.689,15.805C234.863,52.538,234.958,51.44,234.958,50.319z"/>
				<path style="fill:#F2AD33;" d="M193.723,50.319c0,0.872,0.071,1.726,0.179,2.569l35.899,15.465l2.607-7.196l-37.93-16.34
					C193.99,46.569,193.723,48.412,193.723,50.319z"/>
				<path style="fill:#F2AD33;" d="M200.458,72.61l23.244,10.013c0.853-0.734,1.536-1.672,1.936-2.777l1.476-4.073l-30.191-13.005
					L200.458,72.61z"/>
			</g>
			<rect x="148.873" y="160.831" style="fill:#070908;" width="0.75" height="20.651"/>
			<rect x="132.141" y="181.106" style="fill:#070908;" width="194.967" height="0.75"/>
		</g>
		
			<ellipse transform="matrix(0.1602 -0.9871 0.9871 0.1602 366.1897 523.92)" style="fill:#F2AD33;" cx="490.992" cy="46.758" rx="25.937" ry="25.938"/>
		<rect x="18.447" y="383.386" style="fill:#070908;" width="713.106" height="0.75"/>
		<g>
			<g>
				<rect x="141.235" y="220.842" style="fill:#BC3939;" width="9.331" height="131.051"/>
				<rect x="314.033" y="220.842" style="fill:#BC3939;" width="9.331" height="131.051"/>
				<path style="fill:#D25754;" d="M150.566,220.842v131.051h207.452V220.842H150.566z M322.933,318.608H185.652v-75.601h137.282
					V318.608z"/>
				<rect x="57.663" y="351.894" style="fill:#D25754;" width="634.674" height="31.867"/>
				<rect x="57.663" y="351.894" style="fill:#BC3939;" width="92.022" height="31.867"/>
				<rect x="34.201" y="375.957" style="fill:#070908;" width="681.598" height="7.803"/>
				<rect x="49.851" y="351.519" style="fill:#070908;" width="650.297" height="0.75"/>
				<g>
					<path style="fill:#070908;" d="M75.259,352.269h-4.33c-0.207,0-0.375-0.168-0.375-0.375v-64.916
						c0-0.207,0.168-0.375,0.375-0.375h4.33c0.207,0,0.375,0.168,0.375,0.375v64.916C75.634,352.101,75.466,352.269,75.259,352.269z
						 M71.304,351.519h3.58v-64.166h-3.58V351.519z"/>
					<path style="fill:#070908;" d="M438.258,352.269h-4.329c-0.207,0-0.375-0.168-0.375-0.375v-64.916
						c0-0.207,0.168-0.375,0.375-0.375h4.329c0.207,0,0.375,0.168,0.375,0.375v64.916
						C438.633,352.101,438.465,352.269,438.258,352.269z M434.304,351.519h3.579v-64.166h-3.579V351.519z"/>
					<path style="fill:#070908;" d="M560.962,352.269h-4.329c-0.207,0-0.375-0.168-0.375-0.375v-64.916
						c0-0.207,0.168-0.375,0.375-0.375h4.329c0.207,0,0.375,0.168,0.375,0.375v64.916
						C561.337,352.101,561.169,352.269,560.962,352.269z M557.008,351.519h3.579v-64.166h-3.579V351.519z"/>
					<path style="fill:#070908;" d="M683.667,352.269h-4.33c-0.207,0-0.375-0.168-0.375-0.375v-64.916
						c0-0.207,0.168-0.375,0.375-0.375h4.33c0.207,0,0.375,0.168,0.375,0.375v64.916
						C684.042,352.101,683.874,352.269,683.667,352.269z M679.712,351.519h3.58v-64.166h-3.58V351.519z"/>
				</g>
				<rect x="149.311" y="220.842" style="fill:#070908;" width="0.75" height="155.115"/>
				<rect x="322.559" y="243.006" style="fill:#070908;" width="0.75" height="75.601"/>
			</g>
			<g>
				<path style="fill:#E89818;" d="M433.677,383.761c0,0-50.549-49.942-81.571-49.942c-31.022,0-74.423,49.942-74.423,49.942
					H433.677z"/>
				<g>
					<path style="fill:#DB860B;" d="M329.799,355.374c0,1.227-0.67,2.221-1.496,2.221c-0.826,0-1.496-0.994-1.496-2.221
						c0-1.227,0.67-2.221,1.496-2.221C329.129,353.153,329.799,354.147,329.799,355.374z"/>
					<path style="fill:#DB860B;" d="M364.089,346.294c0,1.227-0.67,2.221-1.496,2.221c-0.826,0-1.496-0.994-1.496-2.221
						c0-1.227,0.67-2.221,1.496-2.221C363.419,344.073,364.089,345.067,364.089,346.294z"/>
					<path style="fill:#DB860B;" d="M393.45,376.322c0,1.003-0.547,1.816-1.223,1.816c-0.676,0-1.223-0.813-1.223-1.816
						c0-1.003,0.547-1.816,1.223-1.816C392.902,374.506,393.45,375.319,393.45,376.322z"/>
					<path style="fill:#DB860B;" d="M317.125,360.485c0,1.003-0.547,1.816-1.223,1.816c-0.675,0-1.223-0.813-1.223-1.816
						c0-1.003,0.548-1.816,1.223-1.816C316.577,358.67,317.125,359.483,317.125,360.485z"/>
					<path style="fill:#DB860B;" d="M373.087,358.67c0,1.003-0.548,1.816-1.223,1.816c-0.675,0-1.223-0.813-1.223-1.816
						c0-1.003,0.548-1.816,1.223-1.816C372.54,356.854,373.087,357.667,373.087,358.67z"/>
					<ellipse style="fill:#DB860B;" cx="385.896" cy="355.374" rx="0.867" ry="1.287"/>
					<path style="fill:#DB860B;" d="M296.529,376.322c0,1.003-0.547,1.816-1.223,1.816c-0.675,0-1.223-0.813-1.223-1.816
						c0-1.003,0.547-1.816,1.223-1.816C295.981,374.506,296.529,375.319,296.529,376.322z"/>
					<path style="fill:#DB860B;" d="M353.192,340.794c0,1.003-0.548,1.816-1.223,1.816c-0.675,0-1.223-0.813-1.223-1.816
						c0-1.003,0.548-1.816,1.223-1.816C352.645,338.978,353.192,339.791,353.192,340.794z"/>
					<path style="fill:#DB860B;" d="M362.593,379.493c0,0.748-0.409,1.355-0.913,1.355c-0.504,0-0.913-0.607-0.913-1.355
						c0-0.748,0.409-1.355,0.913-1.355C362.184,378.138,362.593,378.745,362.593,379.493z"/>
					<path style="fill:#DB860B;" d="M397.992,364.948c0,0.748-0.409,1.355-0.913,1.355c-0.504,0-0.913-0.607-0.913-1.355
						c0-0.749,0.409-1.355,0.913-1.355C397.583,363.593,397.992,364.199,397.992,364.948z"/>
					<path style="fill:#DB860B;" d="M327.127,362.834c0,0.749-0.409,1.355-0.913,1.355c-0.504,0-0.913-0.607-0.913-1.355
						c0-0.748,0.409-1.355,0.913-1.355C326.719,361.479,327.127,362.086,327.127,362.834z"/>
					<path style="fill:#DB860B;" d="M315.592,369.923c0,0.749-0.409,1.355-0.913,1.355s-0.913-0.607-0.913-1.355
						c0-0.748,0.409-1.355,0.913-1.355S315.592,369.175,315.592,369.923z"/>
					<path style="fill:#DB860B;" d="M351.659,365.544c0,0.749-0.409,1.355-0.913,1.355c-0.504,0-0.913-0.607-0.913-1.355
						c0-0.748,0.409-1.355,0.913-1.355C351.251,364.189,351.659,364.796,351.659,365.544z"/>
					<path style="fill:#DB860B;" d="M308.461,377.063c0,0.749-0.409,1.355-0.913,1.355c-0.504,0-0.913-0.607-0.913-1.355
						c0-0.748,0.409-1.355,0.913-1.355C308.053,375.708,308.461,376.315,308.461,377.063z"/>
					<path style="fill:#DB860B;" d="M333.603,378.418c0,0.748-0.409,1.355-0.913,1.355c-0.504,0-0.913-0.607-0.913-1.355
						c0-0.748,0.409-1.355,0.913-1.355C333.194,377.063,333.603,377.67,333.603,378.418z"/>
					<path style="fill:#DB860B;" d="M344.823,356.483c0,0.748-0.409,1.355-0.913,1.355c-0.504,0-0.913-0.607-0.913-1.355
						s0.409-1.355,0.913-1.355C344.414,355.128,344.823,355.735,344.823,356.483z"/>
					<ellipse style="fill:#DB860B;" cx="374.86" cy="374.506" rx="0.499" ry="0.741"/>
					<path style="fill:#DB860B;" d="M330.797,343.351c0,0.409-0.224,0.741-0.499,0.741s-0.499-0.332-0.499-0.741
						c0-0.409,0.224-0.741,0.499-0.741S330.797,342.941,330.797,343.351z"/>
					<path style="fill:#DB860B;" d="M309.21,360.738c0,0.409-0.224,0.741-0.499,0.741s-0.499-0.332-0.499-0.741
						s0.224-0.741,0.499-0.741S309.21,360.328,309.21,360.738z"/>
					<ellipse style="fill:#DB860B;" cx="364.621" cy="366.9" rx="0.499" ry="0.741"/>
					<path style="fill:#DB860B;" d="M371.14,345.553c0,0.409-0.224,0.741-0.499,0.741c-0.276,0-0.499-0.332-0.499-0.741
						c0-0.409,0.223-0.741,0.499-0.741C370.917,344.812,371.14,345.143,371.14,345.553z"/>
					<path style="fill:#DB860B;" d="M382.688,367.641c0,0.409-0.224,0.741-0.499,0.741c-0.276,0-0.499-0.332-0.499-0.741
						c0-0.409,0.223-0.741,0.499-0.741C382.464,366.9,382.688,367.231,382.688,367.641z"/>
					<path style="fill:#DB860B;" d="M343.497,368.568c0,0.409-0.224,0.741-0.499,0.741s-0.499-0.332-0.499-0.741
						s0.224-0.741,0.499-0.741S343.497,368.159,343.497,368.568z"/>
					<path style="fill:#DB860B;" d="M334.601,361.479c0,0.409-0.224,0.741-0.499,0.741s-0.499-0.332-0.499-0.741
						c0-0.409,0.224-0.741,0.499-0.741S334.601,361.07,334.601,361.479z"/>
					<path style="fill:#DB860B;" d="M347.896,347.035c0,0.409-0.224,0.741-0.499,0.741s-0.499-0.332-0.499-0.741
						c0-0.409,0.223-0.741,0.499-0.741S347.896,346.626,347.896,347.035z"/>
					<path style="fill:#DB860B;" d="M323.4,372.955c0,0.409-0.224,0.741-0.499,0.741s-0.499-0.332-0.499-0.741
						c0-0.409,0.224-0.741,0.499-0.741S323.4,372.546,323.4,372.955z"/>
					<path style="fill:#DB860B;" d="M356.594,376.936c0,0.409-0.223,0.741-0.499,0.741c-0.276,0-0.499-0.332-0.499-0.741
						c0-0.409,0.224-0.741,0.499-0.741C356.37,376.195,356.594,376.527,356.594,376.936z"/>
					<path style="fill:#DB860B;" d="M357.093,356.483c0,0.409-0.223,0.741-0.499,0.741c-0.276,0-0.499-0.332-0.499-0.741
						s0.223-0.741,0.499-0.741C356.869,355.742,357.093,356.074,357.093,356.483z"/>
					<ellipse style="fill:#DB860B;" cx="336.156" cy="342.61" rx="0.499" ry="0.741"/>
				</g>
			</g>
			<g>
				<g>
					<polygon style="fill:#D25754;" points="263.546,407.129 248.508,363.593 244.898,363.593 229.861,407.129 					"/>
					<g>
						<polygon style="fill:#FFFFFF;" points="260.528,398.392 232.878,398.392 229.874,407.092 263.533,407.092 						"/>
						<polygon style="fill:#FFFFFF;" points="251.513,372.292 248.508,363.593 244.898,363.593 241.893,372.292 						"/>
						<polygon style="fill:#FFFFFF;" points="254.518,380.992 238.888,380.992 235.883,389.692 257.523,389.692 						"/>
					</g>
					<rect x="226.035" y="406.602" style="fill:#D25754;" width="41.336" height="6.255"/>
				</g>
				<rect x="199.349" y="412.482" style="fill:#070908;" width="98.141" height="0.75"/>
			</g>
		</g>
		<g>
			<polygon style="fill:#5C70C4;" points="512.191,500 522.955,317.868 655.196,323.829 662.433,500 			"/>
			<path style="fill:#070908;" d="M578.613,500.012c-0.496-22.739-1.273-45.833-2.025-68.166
				c-0.714-21.235-1.453-43.193-1.941-64.642c-4.347-2.883-8.955-5.319-13.412-7.678c-4.819-2.549-9.371-4.957-13.508-7.833
				l0.428-0.615c4.101,2.85,8.633,5.247,13.431,7.785c4.529,2.396,9.214,4.874,13.64,7.824l0.162,0.108l0.005,0.195
				c0.488,21.508,1.229,43.53,1.946,64.829c0.752,22.335,1.528,45.432,2.025,68.176L578.613,500.012z"/>
			<g>
				
					<rect x="639.588" y="348.803" transform="matrix(0.9981 -0.0612 0.0612 0.9981 -20.1941 39.8233)" style="fill:#070908;" width="0.749" height="1.5"/>
				<path style="fill:#070908;" d="M648.471,495.501l-0.185-3.025l0.748-0.045l0.185,3.025L648.471,495.501z M648.103,489.451
					l-0.185-3.024l0.748-0.045l0.185,3.025L648.103,489.451z M647.734,483.402l-0.185-3.024l0.748-0.045l0.185,3.024
					L647.734,483.402z M647.366,477.353l-0.184-3.024l0.748-0.045l0.185,3.024L647.366,477.353z M646.998,471.305l-0.185-3.024
					l0.748-0.045l0.185,3.024L646.998,471.305z M646.63,465.255l-0.185-3.024l0.748-0.045l0.185,3.025L646.63,465.255z
					 M646.262,459.206l-0.185-3.024l0.748-0.045l0.185,3.024L646.262,459.206z M645.893,453.157l-0.185-3.024l0.748-0.045
					l0.185,3.024L645.893,453.157z M645.525,447.108l-0.185-3.024l0.748-0.045l0.185,3.024L645.525,447.108z M645.157,441.059
					l-0.185-3.024l0.748-0.045l0.185,3.024L645.157,441.059z M644.789,435.01l-0.185-3.024l0.748-0.045l0.185,3.024L644.789,435.01z
					 M644.421,428.961l-0.185-3.024l0.748-0.045l0.185,3.024L644.421,428.961z M644.053,422.912l-0.185-3.024l0.748-0.045
					l0.185,3.024L644.053,422.912z M643.685,416.862l-0.185-3.024l0.748-0.045l0.184,3.024L643.685,416.862z M643.316,410.814
					l-0.185-3.024l0.748-0.045l0.185,3.024L643.316,410.814z M642.948,404.765l-0.185-3.024l0.748-0.045l0.185,3.024
					L642.948,404.765z M642.58,398.716l-0.185-3.024l0.748-0.045l0.185,3.024L642.58,398.716z M642.212,392.667l-0.184-3.025
					l0.748-0.045l0.185,3.025L642.212,392.667z M641.844,386.617l-0.185-3.024l0.748-0.045l0.185,3.024L641.844,386.617z
					 M641.476,380.568l-0.185-3.024l0.748-0.045l0.185,3.024L641.476,380.568z M641.107,374.52l-0.185-3.024l0.748-0.045
					l0.185,3.024L641.107,374.52z M640.739,368.471l-0.185-3.025l0.748-0.045l0.185,3.025L640.739,368.471z M640.371,362.421
					l-0.185-3.024l0.748-0.045l0.185,3.024L640.371,362.421z M640.003,356.372l-0.185-3.024l0.748-0.045l0.185,3.024
					L640.003,356.372z"/>
				
					<rect x="648.699" y="498.502" transform="matrix(0.9982 -0.0605 0.0605 0.9982 -29.0338 40.2102)" style="fill:#070908;" width="0.749" height="1.5"/>
			</g>
			<path style="fill:#FFFFFF;" d="M569.144,233.679c7.082-27.13-26.323-50.302-51.506-21.949
				c-19.175,24.686-34.201,47.712-43.617,68.49c-23.799,39.99,15.969,73.927,43.069,43.359
				C540.411,294.533,564.737,255.445,569.144,233.679z"/>
			
				<ellipse transform="matrix(0.9869 -0.1611 0.1611 0.9869 -13.8382 94.5114)" style="fill:#070908;" cx="575.996" cy="132.605" rx="26.791" ry="32.109"/>
			<path style="fill:#D25754;" d="M609.287,185.628l-19.095-76.988l-39.002-2.031c-9.63,33.798-9.766,56.913,8.329,59.518
				l1.524,32.451l15.844,7.77l19.196-6.551L609.287,185.628z"/>
			<path style="fill:#FFFFFF;" d="M607.846,179.737c-34.564,14.676-31.849,18.333-47.94,6.094c0,0-37.377,23.157-45.502,40.627
				c-8.125,17.47,8.532,95.473,8.532,95.473l134.089,5.992c0,0,2.418-112.029,2.011-117.716
				C658.223,195.175,607.846,179.737,607.846,179.737z"/>
			<path style="fill:#070908;" d="M559.519,166.127c0,0,5.751,0.609,11.502-0.762c-3.088,3.238-6.819,5.307-11.252,6.096
				L559.519,166.127z"/>
			<path style="fill:#D25754;" d="M588.161,124.687c0,0,2.099-2.138,5.242-3.104c12.126-4.108,12.431,11.886,5.45,19.734
				c-2.527,2.88-5.714,4.849-9.016,4.699C579.782,145.559,588.161,124.687,588.161,124.687z"/>
			<path style="fill:#070908;" d="M598.416,141.797c0,0-3.401,3.984-6.98,4.127c2.833,0.539,5.866,0.1,7.694-1.248L598.416,141.797z
				"/>
			<path style="fill:#070908;" d="M596.619,136.341l-0.559-0.501c3.769-4.203,2.301-6.805,1.761-7.501
				c-0.806-1.041-1.983-1.334-2.611-1.008l-0.346-0.666c1.047-0.541,2.604-0.008,3.55,1.215
				C599.044,128.693,600.775,131.706,596.619,136.341z"/>
			<path style="fill:#070908;" d="M591.798,137.028l-0.723-0.203c0.468-1.664,1.342-2.851,2.598-3.528
				c2.145-1.157,4.607-0.393,4.712-0.359l-0.227,0.715c-0.023-0.007-2.273-0.698-4.134,0.308
				C592.956,134.537,592.207,135.569,591.798,137.028z"/>
			<path style="fill:#070908;" d="M593.403,121.584c0,0-4.175,1.352-4.48,7.674c-3.972,0.601-4.432-4.855-1.904-15.464l7.835,0.874
				L593.403,121.584z"/>
			<g>
				<path style="fill:#FFFFFF;" d="M570.403,140.42c-0.262,0-0.523-0.015-0.785-0.046c-2.354-0.281-4.41-1.797-5.789-4.269
					c-1.356-2.433-1.896-5.511-1.518-8.666l0,0c0.376-3.155,1.624-6.02,3.515-8.065c1.921-2.079,4.286-3.068,6.629-2.788
					c2.354,0.281,4.409,1.796,5.788,4.269c1.357,2.433,1.896,5.511,1.52,8.666c-0.376,3.155-1.624,6.02-3.515,8.065
					C574.54,139.433,572.49,140.42,570.403,140.42z M571.673,117.289c-1.877,0-3.734,0.904-5.297,2.594
					c-1.784,1.93-2.963,4.645-3.321,7.645l0,0c-0.357,3,0.149,5.916,1.43,8.212c1.259,2.256,3.113,3.638,5.222,3.889
					c2.112,0.254,4.236-0.655,5.99-2.552c1.784-1.93,2.963-4.646,3.321-7.645c0.357-3-0.15-5.916-1.431-8.212
					c-1.258-2.256-3.112-3.638-5.221-3.889C572.135,117.303,571.903,117.289,571.673,117.289z"/>
				<path style="fill:#FFFFFF;" d="M547.814,137.726c-0.262,0-0.523-0.015-0.785-0.046c-4.812-0.574-8.09-6.376-7.308-12.935
					c0.376-3.155,1.624-6.02,3.515-8.065c1.921-2.079,4.282-3.069,6.629-2.788c4.811,0.574,8.09,6.377,7.308,12.935
					c-0.376,3.155-1.624,6.02-3.515,8.065C551.951,136.739,549.901,137.726,547.814,137.726z M549.084,114.595
					c-1.877,0-3.734,0.904-5.297,2.594c-1.784,1.93-2.963,4.646-3.321,7.645c-0.732,6.148,2.251,11.577,6.651,12.101
					c2.118,0.256,4.235-0.655,5.99-2.552c1.784-1.93,2.963-4.645,3.321-7.645c0.733-6.148-2.251-11.576-6.651-12.101
					C549.546,114.608,549.314,114.595,549.084,114.595z"/>
				<path style="fill:#FFFFFF;" d="M564.418,121.938c-2.274-1.495-4.89-1.802-7.993-0.942l-0.201-0.723
					c3.327-0.921,6.14-0.582,8.606,1.038L564.418,121.938z"/>
			</g>
			<g>
				<path style="fill:#F2AD33;" d="M600.857,121.12c-18.391-5.39-36.227-8.372-53.221-7.707c0,0,7.922-29.556,35.955-22.649
					C605.072,97.264,600.857,121.12,600.857,121.12z"/>
				<path style="fill:#F2AD33;" d="M581.345,116.317c0,0-7.089,4.706-25.025,3.749c-20.946-1.118-11.708-6.653-8.684-6.653
					C554.073,113.108,567.784,113.337,581.345,116.317z"/>
				<path style="fill:#EA9713;" d="M586.367,91.756c-5.273-1.751-13.543,3.274-20.856,12.008l-5.078-0.711
					c2.842-6.1,6.627-11.046,11.541-13.336C577.751,86.93,586.112,88.763,586.367,91.756z"/>
				<path style="fill:#070908;" d="M581.27,116.684c-13.927-2.849-26.479-3.933-33.58-2.9l-0.107-0.742
					c7.175-1.045,19.827,0.042,33.838,2.908L581.27,116.684z"/>
				<path style="fill:#070908;" d="M577.786,103.465l-0.654-0.366c4.616-8.258,14.054-8.978,14.148-8.984l0.051,0.748
					C591.24,94.869,582.2,95.569,577.786,103.465z"/>
			</g>
			<g>
				<path style="fill:#070908;" d="M566.833,131.403c0,0.905,0.733,1.638,1.638,1.638c0.905,0,1.638-0.733,1.638-1.638
					c0-0.904-0.733-1.638-1.638-1.638C567.567,129.766,566.833,130.499,566.833,131.403z"/>
				<path style="fill:#070908;" d="M566.845,125.661c-0.142,0.718,1.05,1.56,2.662,1.88c1.613,0.32,3.036-0.003,3.178-0.721
					c0.143-0.718-1.049-1.56-2.662-1.88C568.41,124.62,566.987,124.943,566.845,125.661z"/>
				<path style="fill:#BC3F3F;" d="M570.664,134.611c-0.126,0.637,0.608,1.318,1.639,1.523c1.032,0.205,1.97-0.145,2.096-0.782
					c0.126-0.637-0.608-1.318-1.639-1.523C571.729,133.624,570.791,133.974,570.664,134.611z"/>
				<path style="fill:#BC3F3F;" d="M546.003,131.033c-0.126,0.637,0.608,1.318,1.639,1.523c1.031,0.205,1.97-0.145,2.096-0.782
					c0.126-0.637-0.608-1.318-1.639-1.523S546.129,130.396,546.003,131.033z"/>
				<path style="fill:#070908;" d="M550.01,122.991c-0.142,0.718,1.05,1.56,2.662,1.88c1.613,0.32,3.036-0.003,3.178-0.721
					c0.143-0.718-1.049-1.56-2.662-1.88C551.576,121.95,550.153,122.272,550.01,122.991z"/>
				<path style="fill:#070908;" d="M550.213,129.303c0,0.905,0.733,1.638,1.638,1.638s1.638-0.733,1.638-1.638
					c0-0.905-0.733-1.638-1.638-1.638S550.213,128.398,550.213,129.303z"/>
				<path style="fill:#070908;" d="M558.017,143.539c-0.115-0.026-2.834-0.636-3.902-1.442c-0.729-0.55,0.018-1.876,1.254-4.072
					c1.215-2.158,2.728-4.844,2.966-7.122c0.428-4.078-0.377-5.268-0.386-5.28l0.599-0.453c0.102,0.133,0.992,1.427,0.533,5.811
					c-0.255,2.433-1.81,5.194-3.059,7.412c-0.663,1.179-1.572,2.794-1.438,3.127c0.921,0.687,3.568,1.281,3.595,1.287
					L558.017,143.539z"/>
				<path style="fill:#070908;" d="M557.362,148.59c-1.683,0-3.696-0.229-6.086-0.831l0.184-0.728
					c9.298,2.344,12.654-1.221,12.687-1.258l0.56,0.5C564.597,146.396,562.57,148.59,557.362,148.59z"/>
				<path style="fill:#070908;" d="M555.02,152.158c-1.019,0-1.97-0.288-2.845-0.863l0.412-0.627
					c1.313,0.866,2.781,0.977,4.49,0.333l0.264,0.702C556.535,152.006,555.76,152.158,555.02,152.158z"/>
			</g>
			<path style="fill:#F2AD33;" d="M615.128,180.829c0,0-35.498,26.331-35.498,73.001c0,46.67,9.097,138.556,9.097,138.556
				c26.155,0.449,51.759-0.844,76.883-3.656c0,0-1.272-168.975-3.101-177.812C659.082,196.368,615.128,180.829,615.128,180.829z"/>
			<path style="fill:#FFFFFF;" d="M660.68,206.347c-18.891-20.72-65.194,0-52.752,37.402c10.254,29.529,27.661,48.504,39.955,67.72
				c20.568,41.744,70.691,26.886,59.823-12.493C696.055,263.596,676.53,221.902,660.68,206.347z"/>
			<path style="fill:#FFFFFF;" d="M610.219,180.497c0,0-5.675-13.998-5.616-13.758c0.06,0.24-30.104,26.457-30.104,26.457
				l4.293,10.561L610.219,180.497z"/>
			<polygon style="fill:#FFFFFF;" points="571.519,192.882 559.976,175.862 557.786,187.181 562.109,201.624 			"/>
			<path style="fill:#F2AD33;" d="M557.786,187.181c-36.326,23.973-21.688,99.426-13.518,203.377
				c-9.896-0.293-19.456-1.259-28.596-3.064c0,0-13.617-130.042-3.503-165.911C521.127,200.456,557.786,187.181,557.786,187.181z"/>
			<path style="fill:#FFFFFF;" d="M665.219,345.356c0.038,3.74,0.073,7.339,0.105,10.745c-25.626,2.006-52.22,2.973-79.628,3.065
				l-0.955-11.576C612.544,347.761,639.399,347.044,665.219,345.356z"/>
			<path style="fill:#FFFFFF;" d="M665.387,362.717c0.027,2.925,0.052,5.672,0.074,8.192c-24.982,2.58-51.136,3.68-78.418,3.5
				c0,0-0.534-5.921-0.784-8.806C612.651,365.342,639.027,364.381,665.387,362.717z"/>
			<path style="fill:#FFFFFF;" d="M540.487,347.285l1.019,11.021c-9.593-0.176-19.158-0.91-28.693-2.206
				c-0.278-3.399-0.563-6.997-0.846-10.745C521.358,346.565,530.868,347.194,540.487,347.285z"/>
			<path style="fill:#FFFFFF;" d="M542.108,365.021l0.826,9.294c-9.548-0.692-19.164-1.826-28.848-3.406
				c-0.226-2.506-0.468-5.253-0.719-8.192C523.136,364.09,532.733,364.908,542.108,365.021z"/>
			<polygon style="fill:#070908;" points="578.627,204.346 574.151,193.337 574.847,193.055 578.957,203.169 609.996,180.196 
				610.441,180.799 			"/>
			<polygon style="fill:#070908;" points="563.393,203.501 556.862,187.321 557.557,187.04 563.612,202.04 571.228,192.645 
				571.811,193.118 			"/>
			<g>
				<polygon style="fill:#FFFFFF;" points="409.941,340.858 580.608,340.858 550.272,202.741 379.605,202.741 				"/>
				<polygon style="fill:#FEECE8;" points="511.734,329.369 559.519,329.369 551.026,290.697 503.24,290.697 				"/>
				<polygon style="fill:#070908;" points="529.387,304.225 512.873,229.044 420.379,229.044 436.856,304.065 436.124,304.225 
					419.447,228.294 513.477,228.294 513.541,228.589 530.119,304.065 				"/>
				<g>
					<polygon style="fill:#FEECE8;" points="507.882,236.09 509.119,241.72 509.099,241.72 510.108,246.316 503.151,246.316 
						501.914,240.686 501.934,240.686 500.925,236.09 					"/>
					<polygon style="fill:#FEECE8;" points="489.717,236.09 490.954,241.72 490.934,241.72 491.943,246.316 484.986,246.316 
						483.749,240.686 483.769,240.686 482.76,236.09 					"/>
					<polygon style="fill:#FEECE8;" points="471.552,236.09 472.789,241.72 472.769,241.72 473.778,246.316 466.821,246.316 
						465.584,240.686 465.604,240.686 464.595,236.09 					"/>
					<polygon style="fill:#FEECE8;" points="453.387,236.09 454.624,241.72 454.604,241.72 455.613,246.316 448.656,246.316 
						447.419,240.686 447.439,240.686 446.43,236.09 					"/>
					<polygon style="fill:#FEECE8;" points="428.265,236.09 435.222,236.09 436.459,241.72 436.439,241.72 437.448,246.316 
						430.491,246.316 429.254,240.686 429.274,240.686 					"/>
				</g>
				<g>
					<polygon style="fill:#FEECE8;" points="512.473,254.851 513.71,260.481 513.69,260.481 514.699,265.077 507.742,265.077 
						506.506,259.447 506.526,259.447 505.516,254.851 					"/>
					<polygon style="fill:#FEECE8;" points="494.309,254.851 495.545,260.481 495.525,260.481 496.535,265.077 489.577,265.077 
						488.341,259.447 488.361,259.447 487.351,254.851 					"/>
					<polygon style="fill:#FEECE8;" points="476.144,254.851 477.38,260.481 477.36,260.481 478.37,265.077 471.413,265.077 
						470.176,259.447 470.196,259.447 469.186,254.851 					"/>
					<polygon style="fill:#FEECE8;" points="457.979,254.851 459.215,260.481 459.195,260.481 460.205,265.077 453.248,265.077 
						452.011,259.447 452.031,259.447 451.022,254.851 					"/>
					<polygon style="fill:#FEECE8;" points="432.857,254.851 439.814,254.851 441.05,260.481 441.03,260.481 442.04,265.077 
						435.082,265.077 433.846,259.447 433.866,259.447 					"/>
				</g>
				<g>
					<polygon style="fill:#FEECE8;" points="517.065,273.612 518.302,279.243 518.282,279.243 519.291,283.838 512.334,283.838 
						511.097,278.208 511.117,278.208 510.108,273.612 					"/>
					<polygon style="fill:#FEECE8;" points="498.9,273.612 500.137,279.243 500.117,279.243 501.126,283.838 494.169,283.838 
						492.932,278.208 492.952,278.208 491.943,273.612 					"/>
					<polygon style="fill:#FEECE8;" points="480.735,273.612 481.972,279.243 481.952,279.243 482.961,283.838 476.004,283.838 
						474.767,278.208 474.787,278.208 473.778,273.612 					"/>
					<polygon style="fill:#FEECE8;" points="462.57,273.612 463.807,279.243 463.787,279.243 464.796,283.838 457.839,283.838 
						456.602,278.208 456.623,278.208 455.613,273.612 					"/>
					<polygon style="fill:#FEECE8;" points="437.448,273.612 444.405,273.612 445.642,279.243 445.622,279.243 446.631,283.838 
						439.674,283.838 438.438,278.208 438.457,278.208 					"/>
				</g>
				<polygon style="fill:#070908;" points="490.992,341.233 409.64,341.233 409.575,340.939 390.636,254.71 391.368,254.55 
					410.243,340.483 490.992,340.483 				"/>
				<rect x="482.056" y="202.366" style="fill:#070908;" width="39.83" height="0.75"/>
				<polygon style="fill:#070908;" points="577.873,330.153 549.971,203.116 521.886,203.116 521.886,202.366 550.574,202.366 
					550.639,202.66 578.605,329.993 				"/>
				<polygon style="fill:#070908;" points="396.396,231.747 392.054,211.97 459.077,211.97 459.077,212.72 392.985,212.72 
					397.129,231.585 				"/>
				<polygon style="fill:#070908;" points="503.24,329.807 418.224,329.807 410.22,293.361 410.952,293.201 418.827,329.057 
					503.24,329.057 				"/>
			</g>
			<g>
				<g>
					<path style="fill:#D25754;" d="M595.486,266.532c0,0-16.12-11.319-33.425-11.902l1.91,8.847l-24.128-3.815
						c-6.638-1.106-9.787,6.979-4.766,9.362c-0.244-0.022-1.709-0.441-1.936-0.404c-4.947-0.894-6.798,8.106,0,9.606
						c0.333,0.139,2.225,0.5,2.225,0.5c-5.302-1.462-7.012,9.447,0,10.043c-3.629,1.489-4.012,6.213,0,8.681
						c13.967,7.556,38.323,11.819,53.975,10.891C608.311,306.175,614.694,284.792,595.486,266.532z"/>
					<path style="fill:#070908;" d="M564.034,275.121c-6.586-0.759-22.524-3.839-29.044-5.371l0.172-0.73
						c6.503,1.528,22.395,4.601,28.958,5.358L564.034,275.121z"/>
					<path style="fill:#070908;" d="M562.726,285.159c-6.507-1.336-21.779-4.578-27.456-6.071l0.191-0.725
						c5.661,1.488,20.915,4.727,27.415,6.061L562.726,285.159z"/>
					<path style="fill:#070908;" d="M560.686,295.436c-5.089-1.002-20.132-4.352-25.45-6.317l0.26-0.703
						c4.861,1.796,19.286,5.094,25.335,6.284L560.686,295.436z"/>
					
						<rect x="567.355" y="260.122" transform="matrix(0.1429 -0.9897 0.9897 0.1429 225.1212 788.3102)" style="fill:#070908;" width="0.75" height="8.096"/>
				</g>
				<path style="fill:#FFFFFF;" d="M595.895,263.745c1.867,16.21-0.88,32.13-7.031,47.834c0,0,49.951,25.04,72.601,27.758
					c45.302,10.645,65.681-37.498,28.369-54.13C655.112,271.72,595.895,263.745,595.895,263.745z"/>
				<path style="fill:#070908;" d="M682.357,282.921c-19.917-6.797-63.845-15.153-64.286-15.237l0.139-0.736
					c0.442,0.083,44.423,8.45,64.39,15.265L682.357,282.921z"/>
				<path style="fill:#070908;" d="M691.531,281.757c-0.091-0.037-9.162-3.668-22.948-3.037l-0.033-0.75
					c13.957-0.629,23.173,3.055,23.265,3.093L691.531,281.757z"/>
				<path style="fill:#070908;" d="M597.633,315.94l-0.558-0.5c7.435-8.318,13.077-39.215,7.488-50.193l0.668-0.34
					C610.916,276.074,605.189,307.487,597.633,315.94z"/>
				<path style="fill:#070908;" d="M595.314,310.408c-1.331,0-2.414-1.083-2.414-2.414c0-1.331,1.083-2.414,2.414-2.414
					s2.414,1.083,2.414,2.414C597.728,309.325,596.645,310.408,595.314,310.408z M595.314,306.33c-0.918,0-1.664,0.746-1.664,1.664
					c0,0.918,0.746,1.664,1.664,1.664c0.918,0,1.664-0.746,1.664-1.664C596.978,307.076,596.232,306.33,595.314,306.33z"/>
			</g>
			<g>
				<path style="fill:#D25754;" d="M391.574,258.994l1.135,5.053c0,0,8.543-2.298,15.668-4.298
					c8.809-2.723,12.043,4.894,8.072,8.226c4.149-1.29,7.588,5.986,2.348,8.004c5.325-1.72,6.304,6.408,1.116,9.303
					c3.423,2.68,2.827,6.297,0,10.212c-3.787,5.277-14.823,10.527-14.823,10.527C391.384,311.233,378.312,264.229,391.574,258.994z"
					/>
				<g>
					
						<rect x="396.067" y="271.191" transform="matrix(0.94 -0.3412 0.3412 0.94 -68.26 155.0171)" style="fill:#070908;" width="21.008" height="0.75"/>
					
						<rect x="400.484" y="280.464" transform="matrix(0.8686 -0.4956 0.4956 0.8686 -85.2509 240.2404)" style="fill:#070908;" width="19.601" height="0.749"/>
					
						<rect x="403.635" y="289.676" transform="matrix(0.842 -0.5395 0.5395 0.842 -91.3071 268.3909)" style="fill:#070908;" width="17.675" height="0.749"/>
				</g>
			</g>
		</g>
		<g>
			<g>
				<path style="fill:#F2AD33;" d="M0,500h283.76c0,0-113.607-75.598-183.327-75.598c-31.654,0-69.041,15.583-100.432,32.599V500z"
					/>
				<path style="fill:#E89818;" d="M201.725,469.837c0,1.054-0.855,1.909-1.909,1.909c-1.054,0-1.909-0.855-1.909-1.909
					c0-1.054,0.855-1.909,1.909-1.909C200.87,467.928,201.725,468.783,201.725,469.837z"/>
				<path style="fill:#E89818;" d="M191.07,482.066c0,0.577-0.467,1.044-1.044,1.044c-0.577,0-1.044-0.467-1.044-1.044
					c0-0.577,0.467-1.044,1.044-1.044C190.603,481.022,191.07,481.489,191.07,482.066z"/>
				<path style="fill:#E89818;" d="M220.965,479.411c0,0.577-0.467,1.044-1.044,1.044s-1.044-0.467-1.044-1.044
					s0.467-1.044,1.044-1.044S220.965,478.834,220.965,479.411z"/>
				<path style="fill:#E89818;" d="M186.219,471.746c0,0.577-0.467,1.044-1.044,1.044c-0.577,0-1.044-0.467-1.044-1.044
					c0-0.577,0.467-1.044,1.044-1.044C185.752,470.702,186.219,471.169,186.219,471.746z"/>
				<g>
					<path style="fill:#E89818;" d="M411.831,500c0,0-67.38-44.837-108.73-44.837c-41.35,0-99.202,44.837-99.202,44.837H411.831z"/>
					<g>
						<circle style="fill:#DB860B;" cx="271.372" cy="474.515" r="1.994"/>
						<path style="fill:#DB860B;" d="M319.073,466.363c0,1.101-0.893,1.994-1.994,1.994s-1.994-0.893-1.994-1.994
							s0.893-1.994,1.994-1.994S319.073,465.262,319.073,466.363z"/>
						<path style="fill:#DB860B;" d="M358.209,493.322c0,0.9-0.73,1.63-1.63,1.63c-0.9,0-1.63-0.73-1.63-1.63s0.73-1.63,1.63-1.63
							C357.48,491.691,358.209,492.421,358.209,493.322z"/>
						<path style="fill:#DB860B;" d="M256.472,479.104c0,0.9-0.73,1.63-1.63,1.63c-0.9,0-1.63-0.73-1.63-1.63
							c0-0.9,0.73-1.63,1.63-1.63C255.742,477.474,256.472,478.203,256.472,479.104z"/>
						<circle style="fill:#DB860B;" cx="329.437" cy="477.474" r="1.63"/>
						<circle style="fill:#DB860B;" cx="348.14" cy="474.515" r="1.156"/>
						<path style="fill:#DB860B;" d="M229.018,493.322c0,0.9-0.73,1.63-1.63,1.63s-1.63-0.73-1.63-1.63s0.73-1.63,1.63-1.63
							S229.018,492.421,229.018,493.322z"/>
						<path style="fill:#DB860B;" d="M304.548,461.425c0,0.9-0.73,1.63-1.63,1.63c-0.9,0-1.63-0.73-1.63-1.63
							c0-0.9,0.73-1.63,1.63-1.63C303.819,459.795,304.548,460.525,304.548,461.425z"/>
						<path style="fill:#DB860B;" d="M317.079,496.168c0,0.672-0.545,1.217-1.217,1.217c-0.672,0-1.217-0.545-1.217-1.217
							c0-0.672,0.545-1.217,1.217-1.217C316.534,494.952,317.079,495.496,317.079,496.168z"/>
						<path style="fill:#DB860B;" d="M364.264,483.11c0,0.672-0.545,1.217-1.217,1.217c-0.672,0-1.217-0.545-1.217-1.217
							c0-0.672,0.545-1.217,1.217-1.217C363.719,481.893,364.264,482.438,364.264,483.11z"/>
						<path style="fill:#DB860B;" d="M269.805,481.212c0,0.672-0.545,1.217-1.217,1.217c-0.672,0-1.217-0.545-1.217-1.217
							c0-0.672,0.545-1.217,1.217-1.217C269.26,479.996,269.805,480.54,269.805,481.212z"/>
						<path style="fill:#DB860B;" d="M254.428,487.577c0,0.672-0.545,1.217-1.217,1.217c-0.672,0-1.217-0.545-1.217-1.217
							c0-0.672,0.545-1.217,1.217-1.217C253.884,486.36,254.428,486.905,254.428,487.577z"/>
						<path style="fill:#DB860B;" d="M302.505,483.646c0,0.672-0.545,1.217-1.217,1.217s-1.217-0.545-1.217-1.217
							s0.545-1.217,1.217-1.217S302.505,482.974,302.505,483.646z"/>
						<path style="fill:#DB860B;" d="M244.924,493.987c0,0.672-0.545,1.217-1.217,1.217c-0.672,0-1.217-0.545-1.217-1.217
							c0-0.672,0.545-1.217,1.217-1.217C244.379,492.77,244.924,493.315,244.924,493.987z"/>
						<path style="fill:#DB860B;" d="M278.436,495.204c0,0.672-0.545,1.217-1.217,1.217c-0.672,0-1.217-0.545-1.217-1.217
							c0-0.672,0.545-1.217,1.217-1.217C277.892,493.987,278.436,494.532,278.436,495.204z"/>
						<path style="fill:#DB860B;" d="M293.392,475.51c0,0.672-0.545,1.217-1.217,1.217c-0.672,0-1.217-0.545-1.217-1.217
							s0.545-1.217,1.217-1.217C292.847,474.294,293.392,474.839,293.392,475.51z"/>
						<circle style="fill:#DB860B;" cx="333.43" cy="491.691" r="0.665"/>
						<path style="fill:#DB860B;" d="M274.697,463.721c0,0.367-0.298,0.665-0.665,0.665c-0.368,0-0.665-0.298-0.665-0.665
							c0-0.368,0.298-0.665,0.665-0.665C274.399,463.055,274.697,463.353,274.697,463.721z"/>
						<circle style="fill:#DB860B;" cx="245.256" cy="479.33" r="0.665"/>
						<path style="fill:#DB860B;" d="M320.447,484.862c0,0.367-0.298,0.665-0.665,0.665c-0.367,0-0.665-0.298-0.665-0.665
							c0-0.367,0.298-0.665,0.665-0.665C320.149,484.197,320.447,484.495,320.447,484.862z"/>
						<circle style="fill:#DB860B;" cx="327.807" cy="465.697" r="0.665"/>
						<path style="fill:#DB860B;" d="M343.864,485.528c0,0.367-0.298,0.665-0.665,0.665s-0.665-0.298-0.665-0.665
							c0-0.367,0.298-0.665,0.665-0.665S343.864,485.16,343.864,485.528z"/>
						<circle style="fill:#DB860B;" cx="290.959" cy="486.36" r="0.665"/>
						<circle style="fill:#DB860B;" cx="279.102" cy="479.996" r="0.665"/>
						<circle style="fill:#DB860B;" cx="296.824" cy="467.028" r="0.665"/>
						<circle style="fill:#DB860B;" cx="264.171" cy="490.299" r="0.665"/>
						<circle style="fill:#DB860B;" cx="308.417" cy="493.873" r="0.665"/>
						<circle style="fill:#DB860B;" cx="309.082" cy="475.51" r="0.665"/>
						<circle style="fill:#DB860B;" cx="281.839" cy="463.055" r="0.665"/>
					</g>
				</g>
				<g>
					<path style="fill:#E89818;" d="M58.553,445.384c0,1.586-1.286,2.872-2.872,2.872c-1.586,0-2.872-1.286-2.872-2.872
						c0-1.586,1.286-2.872,2.872-2.872C57.267,442.512,58.553,443.798,58.553,445.384z"/>
					<path style="fill:#E89818;" d="M142.977,446.343c0,1.586-1.286,2.872-2.872,2.872c-1.586,0-2.872-1.286-2.872-2.872
						c0-1.586,1.286-2.872,2.872-2.872C141.691,443.471,142.977,444.757,142.977,446.343z"/>
					<path style="fill:#E89818;" d="M199.349,485.173c0,1.297-1.051,2.348-2.348,2.348c-1.297,0-2.348-1.051-2.348-2.348
						s1.051-2.348,2.348-2.348C198.297,482.825,199.349,483.877,199.349,485.173z"/>
					<path style="fill:#E89818;" d="M52.809,464.694c0,1.297-1.051,2.348-2.348,2.348c-1.297,0-2.348-1.051-2.348-2.348
						c0-1.297,1.051-2.348,2.348-2.348C51.757,462.346,52.809,463.397,52.809,464.694z"/>
					<path style="fill:#E89818;" d="M160.253,462.346c0,1.297-1.051,2.348-2.348,2.348s-2.348-1.051-2.348-2.348
						c0-1.297,1.051-2.348,2.348-2.348S160.253,461.049,160.253,462.346z"/>
					<path style="fill:#E89818;" d="M186.51,458.085c0,0.919-0.745,1.665-1.665,1.665c-0.919,0-1.665-0.745-1.665-1.665
						c0-0.919,0.745-1.665,1.665-1.665C185.765,456.42,186.51,457.165,186.51,458.085z"/>
					<path style="fill:#E89818;" d="M13.265,485.173c0,1.297-1.051,2.348-2.348,2.348s-2.348-1.051-2.348-2.348
						s1.051-2.348,2.348-2.348S13.265,483.877,13.265,485.173z"/>
					<path style="fill:#E89818;" d="M122.057,439.23c0,1.297-1.051,2.348-2.348,2.348c-1.297,0-2.348-1.051-2.348-2.348
						c0-1.297,1.051-2.348,2.348-2.348C121.005,436.882,122.057,437.934,122.057,439.23z"/>
					<path style="fill:#E89818;" d="M140.105,489.274c0,0.968-0.785,1.753-1.752,1.753c-0.968,0-1.752-0.785-1.752-1.753
						c0-0.968,0.785-1.752,1.752-1.752C139.32,487.521,140.105,488.306,140.105,489.274z"/>
					<path style="fill:#E89818;" d="M208.069,470.465c0,0.968-0.785,1.752-1.752,1.752c-0.968,0-1.753-0.785-1.753-1.752
						c0-0.968,0.785-1.752,1.753-1.752C207.285,468.712,208.069,469.497,208.069,470.465z"/>
					<circle style="fill:#E89818;" cx="70.26" cy="467.732" r="1.752"/>
					<path style="fill:#E89818;" d="M49.865,476.899c0,0.968-0.785,1.753-1.752,1.753c-0.968,0-1.752-0.785-1.752-1.753
						c0-0.968,0.785-1.752,1.752-1.752C49.08,475.146,49.865,475.931,49.865,476.899z"/>
					<circle style="fill:#E89818;" cx="117.36" cy="471.236" r="1.752"/>
					<circle style="fill:#E89818;" cx="34.423" cy="486.132" r="1.752"/>
					<circle style="fill:#E89818;" cx="82.693" cy="487.884" r="1.752"/>
					<path style="fill:#E89818;" d="M105.987,459.519c0,0.968-0.785,1.752-1.753,1.752c-0.968,0-1.752-0.785-1.752-1.752
						c0-0.968,0.785-1.752,1.752-1.752C105.203,457.766,105.987,458.551,105.987,459.519z"/>
					<path style="fill:#E89818;" d="M164.616,486.926c0,0.529-0.429,0.958-0.958,0.958c-0.529,0-0.958-0.429-0.958-0.958
						s0.429-0.958,0.958-0.958C164.187,485.967,164.616,486.397,164.616,486.926z"/>
					<path style="fill:#E89818;" d="M79.059,442.537c0,0.529-0.429,0.958-0.958,0.958c-0.529,0-0.958-0.429-0.958-0.958
						c0-0.529,0.429-0.958,0.958-0.958C78.63,441.578,79.059,442.008,79.059,442.537z"/>
					<path style="fill:#E89818;" d="M15.182,457.766c0,0.529-0.429,0.958-0.958,0.958c-0.529,0-0.958-0.429-0.958-0.958
						c0-0.529,0.429-0.958,0.958-0.958C14.753,456.808,15.182,457.237,15.182,457.766z"/>
					<path style="fill:#E89818;" d="M144.957,472.989c0,0.529-0.429,0.958-0.958,0.958c-0.529,0-0.958-0.429-0.958-0.958
						c0-0.529,0.429-0.958,0.958-0.958C144.528,472.03,144.957,472.46,144.957,472.989z"/>
					<path style="fill:#E89818;" d="M156.516,445.384c0,0.529-0.429,0.958-0.958,0.958c-0.529,0-0.958-0.429-0.958-0.958
						c0-0.529,0.429-0.958,0.958-0.958C156.087,444.426,156.516,444.855,156.516,445.384z"/>
					<path style="fill:#E89818;" d="M178.686,473.947c0,0.529-0.429,0.958-0.958,0.958c-0.529,0-0.958-0.429-0.958-0.958
						s0.429-0.958,0.958-0.958C178.257,472.989,178.686,473.418,178.686,473.947z"/>
					<path style="fill:#E89818;" d="M103.441,475.146c0,0.529-0.429,0.958-0.958,0.958c-0.529,0-0.958-0.429-0.958-0.958
						c0-0.529,0.429-0.958,0.958-0.958C103.012,474.188,103.441,474.617,103.441,475.146z"/>
					<path style="fill:#E89818;" d="M86.362,465.979c0,0.529-0.429,0.958-0.959,0.958c-0.529,0-0.958-0.429-0.958-0.958
						c0-0.529,0.429-0.958,0.958-0.958C85.933,465.021,86.362,465.45,86.362,465.979z"/>
					<path style="fill:#E89818;" d="M111.889,447.301c0,0.529-0.429,0.958-0.958,0.958c-0.529,0-0.958-0.429-0.958-0.958
						c0-0.529,0.429-0.958,0.958-0.958C111.459,446.343,111.889,446.772,111.889,447.301z"/>
					<path style="fill:#E89818;" d="M64.857,480.819c0,0.529-0.429,0.958-0.958,0.958c-0.529,0-0.958-0.429-0.958-0.958
						c0-0.529,0.429-0.958,0.958-0.958C64.428,479.861,64.857,480.29,64.857,480.819z"/>
					<path style="fill:#E89818;" d="M128.587,485.967c0,0.529-0.429,0.958-0.959,0.958c-0.529,0-0.958-0.429-0.958-0.958
						c0-0.529,0.429-0.958,0.958-0.958C128.158,485.009,128.587,485.438,128.587,485.967z"/>
					<path style="fill:#E89818;" d="M129.545,459.519c0,0.529-0.429,0.958-0.958,0.958c-0.529,0-0.959-0.429-0.959-0.958
						c0-0.529,0.429-0.958,0.959-0.958C129.116,458.56,129.545,458.989,129.545,459.519z"/>
					<path style="fill:#E89818;" d="M90.305,441.578c0,0.529-0.429,0.958-0.959,0.958c-0.529,0-0.958-0.429-0.958-0.958
						s0.429-0.958,0.958-0.958C89.876,440.62,90.305,441.049,90.305,441.578z"/>
				</g>
				<path style="fill:#070908;" d="M204.71,500c12.022-9.149,24.785-17.396,37.959-24.508l-0.358-0.668
					c-13.501,7.289-26.576,15.759-38.863,25.177H204.71z"/>
			</g>
			<g>
				<rect x="386.493" y="452.528" style="fill:#070908;" width="19.055" height="47.476"/>
				<rect x="593.215" y="452.528" style="fill:#070908;" width="19.055" height="47.476"/>
				<rect x="361.375" y="416.24" style="fill:#D25754;" width="276.014" height="44.832"/>
				
					<rect x="637.07" y="416.24" transform="matrix(-1 -1.224647e-16 1.224647e-16 -1 1279.8346 877.3111)" style="fill:#D25754;" width="5.694" height="44.832"/>
				<g>
					<polygon style="fill:#FFFFFF;" points="361.374,416.24 396.641,461.072 418.684,461.072 383.417,416.24 					"/>
					<polygon style="fill:#FFFFFF;" points="493.064,416.24 528.331,461.072 550.374,461.072 515.107,416.24 					"/>
					<polygon style="fill:#FFFFFF;" points="536.182,416.24 571.449,461.072 593.492,461.072 558.225,416.24 					"/>
					<polygon style="fill:#FFFFFF;" points="580.079,416.24 615.346,461.072 637.388,461.072 602.122,416.24 					"/>
					<polygon style="fill:#FFFFFF;" points="449.168,416.24 484.435,461.072 506.477,461.072 471.21,416.24 					"/>
					<polygon style="fill:#FFFFFF;" points="405.271,416.24 440.538,461.072 462.581,461.072 427.314,416.24 					"/>
				</g>
				<rect x="637.014" y="416.239" style="fill:#070908;" width="0.75" height="44.832"/>
				<rect x="401.651" y="461.071" style="fill:#5A5D60;" width="0.75" height="38.933"/>
				<rect x="609.136" y="461.071" style="fill:#5A5D60;" width="0.75" height="38.933"/>
			</g>
		</g>
	</g>
</g>
</svg>
